<svg xmlns="http://www.w3.org/2000/svg" xmlns:xlink="http://www.w3.org/1999/xlink" width="500" zoomAndPan="magnify" viewBox="0 0 375 374.999991" height="500" preserveAspectRatio="xMidYMid meet" version="1.0"><defs><g/><clipPath id="93d43a2535"><path d="M 37.5 180.121094 L 337.5 180.121094 L 337.5 206.847656 L 37.5 206.847656 Z M 37.5 180.121094 " clip-rule="nonzero"/></clipPath></defs><g fill="#e50914" fill-opacity="1"><g transform="translate(56.777345, 234.054798)"><g><path d="M 96.28125 0 L 78.265625 0 L 78.15625 -52.21875 L 58.875 -8.03125 L 45.5625 -8.03125 L 26.28125 -52.21875 L 26.28125 0 L 8.03125 0 L 8.03125 -80.453125 L 30.40625 -80.453125 L 52.21875 -32.59375 L 74.03125 -80.453125 L 96.28125 -80.453125 Z M 96.28125 0 "/></g></g></g><g fill="#e50914" fill-opacity="1"><g transform="translate(161.210489, 234.054798)"><g><path d="M 56.46875 0 L 44.53125 -22.609375 L 28.46875 -22.609375 L 28.46875 0 L 8.03125 0 L 8.03125 -80.34375 L 43.953125 -80.34375 C 54.585938 -80.34375 62.8125 -77.910156 68.625 -73.046875 C 74.445312 -68.191406 77.359375 -61.285156 77.359375 -52.328125 C 77.359375 -39.929688 72.5 -31.328125 62.78125 -26.515625 L 79.640625 0 Z M 28.46875 -38.671875 L 43.953125 -38.671875 C 48.390625 -38.671875 51.832031 -39.78125 54.28125 -42 C 56.726562 -44.21875 57.953125 -47.429688 57.953125 -51.640625 C 57.953125 -55.773438 56.726562 -58.910156 54.28125 -61.046875 C 51.832031 -63.191406 48.390625 -64.265625 43.953125 -64.265625 L 28.46875 -64.265625 Z M 28.46875 -38.671875 "/></g></g></g><g fill="#e50914" fill-opacity="1"><g transform="translate(244.297966, 234.054798)"><g><path d="M 38.90625 -81.25 C 50.914062 -81.25 61.472656 -78.265625 70.578125 -72.296875 L 62.890625 -56.34375 C 58.679688 -58.789062 54.164062 -60.800781 49.34375 -62.375 C 44.53125 -63.945312 40.476562 -64.734375 37.1875 -64.734375 C 31.289062 -64.734375 28.34375 -62.78125 28.34375 -58.875 C 28.34375 -56.351562 29.796875 -54.328125 32.703125 -52.796875 C 35.609375 -51.265625 39.144531 -49.941406 43.3125 -48.828125 C 47.488281 -47.722656 51.660156 -46.382812 55.828125 -44.8125 C 60.003906 -43.25 63.546875 -40.707031 66.453125 -37.1875 C 69.359375 -33.664062 70.8125 -29.226562 70.8125 -23.875 C 70.8125 -16.144531 67.785156 -10.117188 61.734375 -5.796875 C 55.691406 -1.472656 48.003906 0.6875 38.671875 0.6875 C 32.015625 0.6875 25.4375 -0.457031 18.9375 -2.75 C 12.4375 -5.050781 6.773438 -8.191406 1.953125 -12.171875 L 9.875 -27.890625 C 13.925781 -24.367188 18.707031 -21.476562 24.21875 -19.21875 C 29.726562 -16.96875 34.625 -15.84375 38.90625 -15.84375 C 42.195312 -15.84375 44.757812 -16.429688 46.59375 -17.609375 C 48.425781 -18.796875 49.34375 -20.539062 49.34375 -22.84375 C 49.34375 -25.0625 48.289062 -26.914062 46.1875 -28.40625 C 44.082031 -29.894531 41.460938 -31.003906 38.328125 -31.734375 C 35.191406 -32.460938 31.785156 -33.4375 28.109375 -34.65625 C 24.441406 -35.882812 21.039062 -37.222656 17.90625 -38.671875 C 14.769531 -40.128906 12.148438 -42.441406 10.046875 -45.609375 C 7.941406 -48.785156 6.890625 -52.59375 6.890625 -57.03125 C 6.890625 -64.382812 9.8125 -70.257812 15.65625 -74.65625 C 21.507812 -79.050781 29.257812 -81.25 38.90625 -81.25 Z M 38.90625 -81.25 "/></g></g></g><g clip-path="url(#93d43a2535)"><path fill="#171616" d="M 37.5 180.121094 L 337.546875 180.121094 L 337.546875 206.847656 L 37.5 206.847656 Z M 37.5 180.121094 " fill-opacity="1" fill-rule="nonzero"/></g><g fill="#ffffff" fill-opacity="1"><g transform="translate(64.75073, 198.360501)"><g><path d="M 10.703125 0 L 10.6875 -6.234375 L 7.625 -1.09375 L 6.53125 -1.09375 L 3.484375 -6.109375 L 3.484375 0 L 1.234375 0 L 1.234375 -10.40625 L 3.21875 -10.40625 L 7.125 -3.9375 L 10.953125 -10.40625 L 12.921875 -10.40625 L 12.953125 0 Z M 10.703125 0 "/></g></g></g><g fill="#ffffff" fill-opacity="1"><g transform="translate(78.335787, 198.360501)"><g><path d="M 4.875 0.125 C 4.03125 0.125 3.273438 -0.0507812 2.609375 -0.40625 C 1.941406 -0.757812 1.414062 -1.25 1.03125 -1.875 C 0.65625 -2.5 0.46875 -3.207031 0.46875 -4 C 0.46875 -4.789062 0.65625 -5.5 1.03125 -6.125 C 1.414062 -6.75 1.941406 -7.234375 2.609375 -7.578125 C 3.273438 -7.929688 4.03125 -8.109375 4.875 -8.109375 C 5.71875 -8.109375 6.46875 -7.929688 7.125 -7.578125 C 7.789062 -7.234375 8.3125 -6.75 8.6875 -6.125 C 9.0625 -5.5 9.25 -4.789062 9.25 -4 C 9.25 -3.207031 9.0625 -2.5 8.6875 -1.875 C 8.3125 -1.25 7.789062 -0.757812 7.125 -0.40625 C 6.46875 -0.0507812 5.71875 0.125 4.875 0.125 Z M 4.875 -1.78125 C 5.46875 -1.78125 5.953125 -1.976562 6.328125 -2.375 C 6.710938 -2.78125 6.90625 -3.320312 6.90625 -4 C 6.90625 -4.664062 6.710938 -5.203125 6.328125 -5.609375 C 5.953125 -6.015625 5.46875 -6.21875 4.875 -6.21875 C 4.28125 -6.21875 3.789062 -6.015625 3.40625 -5.609375 C 3.019531 -5.203125 2.828125 -4.664062 2.828125 -4 C 2.828125 -3.320312 3.019531 -2.78125 3.40625 -2.375 C 3.789062 -1.976562 4.28125 -1.78125 4.875 -1.78125 Z M 4.875 -1.78125 "/></g></g></g><g fill="#ffffff" fill-opacity="1"><g transform="translate(87.466552, 198.360501)"><g><path d="M 9 -8 L 5.625 0 L 3.234375 0 L -0.125 -8 L 2.28125 -8 L 4.484375 -2.5625 L 6.78125 -8 Z M 9 -8 "/></g></g></g><g fill="#ffffff" fill-opacity="1"><g transform="translate(95.751004, 198.360501)"><g><path d="M 1.0625 -8 L 3.390625 -8 L 3.390625 0 L 1.0625 0 Z M 2.234375 -9.109375 C 1.804688 -9.109375 1.457031 -9.234375 1.1875 -9.484375 C 0.914062 -9.734375 0.78125 -10.039062 0.78125 -10.40625 C 0.78125 -10.769531 0.914062 -11.070312 1.1875 -11.3125 C 1.457031 -11.5625 1.804688 -11.6875 2.234375 -11.6875 C 2.660156 -11.6875 3.003906 -11.566406 3.265625 -11.328125 C 3.535156 -11.097656 3.671875 -10.804688 3.671875 -10.453125 C 3.671875 -10.054688 3.535156 -9.734375 3.265625 -9.484375 C 3.003906 -9.234375 2.660156 -9.109375 2.234375 -9.109375 Z M 2.234375 -9.109375 "/></g></g></g><g fill="#ffffff" fill-opacity="1"><g transform="translate(99.625705, 198.360501)"><g><path d="M 8.90625 -3.96875 C 8.90625 -3.9375 8.890625 -3.726562 8.859375 -3.34375 L 2.8125 -3.34375 C 2.914062 -2.84375 3.171875 -2.445312 3.578125 -2.15625 C 3.984375 -1.875 4.488281 -1.734375 5.09375 -1.734375 C 5.507812 -1.734375 5.878906 -1.796875 6.203125 -1.921875 C 6.523438 -2.046875 6.828125 -2.242188 7.109375 -2.515625 L 8.34375 -1.171875 C 7.582031 -0.304688 6.476562 0.125 5.03125 0.125 C 4.132812 0.125 3.335938 -0.0507812 2.640625 -0.40625 C 1.953125 -0.757812 1.414062 -1.25 1.03125 -1.875 C 0.65625 -2.5 0.46875 -3.207031 0.46875 -4 C 0.46875 -4.78125 0.65625 -5.484375 1.03125 -6.109375 C 1.40625 -6.742188 1.914062 -7.234375 2.5625 -7.578125 C 3.207031 -7.929688 3.929688 -8.109375 4.734375 -8.109375 C 5.515625 -8.109375 6.222656 -7.941406 6.859375 -7.609375 C 7.492188 -7.273438 7.992188 -6.789062 8.359375 -6.15625 C 8.722656 -5.53125 8.90625 -4.800781 8.90625 -3.96875 Z M 4.75 -6.359375 C 4.226562 -6.359375 3.785156 -6.207031 3.421875 -5.90625 C 3.066406 -5.613281 2.851562 -5.210938 2.78125 -4.703125 L 6.71875 -4.703125 C 6.632812 -5.203125 6.414062 -5.601562 6.0625 -5.90625 C 5.707031 -6.207031 5.269531 -6.359375 4.75 -6.359375 Z M 4.75 -6.359375 "/></g></g></g><g fill="#ffffff" fill-opacity="1"><g transform="translate(108.403071, 198.360501)"><g/></g></g><g fill="#ffffff" fill-opacity="1"><g transform="translate(112.010517, 198.360501)"><g/></g></g><g fill="#ffffff" fill-opacity="1"><g transform="translate(115.617963, 198.360501)"><g/></g></g><g fill="#ffffff" fill-opacity="1"><g transform="translate(119.231195, 198.360501)"><g><path d="M 7.859375 0 L 5.859375 -2.890625 L 3.640625 -2.890625 L 3.640625 0 L 1.234375 0 L 1.234375 -10.40625 L 5.734375 -10.40625 C 6.660156 -10.40625 7.460938 -10.25 8.140625 -9.9375 C 8.816406 -9.632812 9.335938 -9.195312 9.703125 -8.625 C 10.066406 -8.0625 10.25 -7.394531 10.25 -6.625 C 10.25 -5.851562 10.0625 -5.1875 9.6875 -4.625 C 9.320312 -4.070312 8.796875 -3.644531 8.109375 -3.34375 L 10.453125 0 Z M 7.8125 -6.625 C 7.8125 -7.207031 7.625 -7.65625 7.25 -7.96875 C 6.875 -8.28125 6.328125 -8.4375 5.609375 -8.4375 L 3.640625 -8.4375 L 3.640625 -4.8125 L 5.609375 -4.8125 C 6.328125 -4.8125 6.875 -4.96875 7.25 -5.28125 C 7.625 -5.601562 7.8125 -6.050781 7.8125 -6.625 Z M 7.8125 -6.625 "/></g></g></g><g fill="#ffffff" fill-opacity="1"><g transform="translate(129.549777, 198.360501)"><g><path d="M 8.90625 -3.96875 C 8.90625 -3.9375 8.890625 -3.726562 8.859375 -3.34375 L 2.8125 -3.34375 C 2.914062 -2.84375 3.171875 -2.445312 3.578125 -2.15625 C 3.984375 -1.875 4.488281 -1.734375 5.09375 -1.734375 C 5.507812 -1.734375 5.878906 -1.796875 6.203125 -1.921875 C 6.523438 -2.046875 6.828125 -2.242188 7.109375 -2.515625 L 8.34375 -1.171875 C 7.582031 -0.304688 6.476562 0.125 5.03125 0.125 C 4.132812 0.125 3.335938 -0.0507812 2.640625 -0.40625 C 1.953125 -0.757812 1.414062 -1.25 1.03125 -1.875 C 0.65625 -2.5 0.46875 -3.207031 0.46875 -4 C 0.46875 -4.78125 0.65625 -5.484375 1.03125 -6.109375 C 1.40625 -6.742188 1.914062 -7.234375 2.5625 -7.578125 C 3.207031 -7.929688 3.929688 -8.109375 4.734375 -8.109375 C 5.515625 -8.109375 6.222656 -7.941406 6.859375 -7.609375 C 7.492188 -7.273438 7.992188 -6.789062 8.359375 -6.15625 C 8.722656 -5.53125 8.90625 -4.800781 8.90625 -3.96875 Z M 4.75 -6.359375 C 4.226562 -6.359375 3.785156 -6.207031 3.421875 -5.90625 C 3.066406 -5.613281 2.851562 -5.210938 2.78125 -4.703125 L 6.71875 -4.703125 C 6.632812 -5.203125 6.414062 -5.601562 6.0625 -5.90625 C 5.707031 -6.207031 5.269531 -6.359375 4.75 -6.359375 Z M 4.75 -6.359375 "/></g></g></g><g fill="#ffffff" fill-opacity="1"><g transform="translate(138.324196, 198.360501)"><g><path d="M 4.9375 0.125 C 4.082031 0.125 3.316406 -0.0507812 2.640625 -0.40625 C 1.960938 -0.757812 1.429688 -1.25 1.046875 -1.875 C 0.660156 -2.5 0.46875 -3.207031 0.46875 -4 C 0.46875 -4.789062 0.660156 -5.5 1.046875 -6.125 C 1.429688 -6.75 1.960938 -7.234375 2.640625 -7.578125 C 3.316406 -7.929688 4.082031 -8.109375 4.9375 -8.109375 C 5.78125 -8.109375 6.515625 -7.929688 7.140625 -7.578125 C 7.765625 -7.234375 8.222656 -6.734375 8.515625 -6.078125 L 6.71875 -5.109375 C 6.300781 -5.847656 5.703125 -6.21875 4.921875 -6.21875 C 4.316406 -6.21875 3.816406 -6.015625 3.421875 -5.609375 C 3.023438 -5.210938 2.828125 -4.675781 2.828125 -4 C 2.828125 -3.3125 3.023438 -2.769531 3.421875 -2.375 C 3.816406 -1.976562 4.316406 -1.78125 4.921875 -1.78125 C 5.710938 -1.78125 6.3125 -2.144531 6.71875 -2.875 L 8.515625 -1.90625 C 8.222656 -1.269531 7.765625 -0.769531 7.140625 -0.40625 C 6.515625 -0.0507812 5.78125 0.125 4.9375 0.125 Z M 4.9375 0.125 "/></g></g></g><g fill="#ffffff" fill-opacity="1"><g transform="translate(146.504713, 198.360501)"><g><path d="M 4.875 0.125 C 4.03125 0.125 3.273438 -0.0507812 2.609375 -0.40625 C 1.941406 -0.757812 1.414062 -1.25 1.03125 -1.875 C 0.65625 -2.5 0.46875 -3.207031 0.46875 -4 C 0.46875 -4.789062 0.65625 -5.5 1.03125 -6.125 C 1.414062 -6.75 1.941406 -7.234375 2.609375 -7.578125 C 3.273438 -7.929688 4.03125 -8.109375 4.875 -8.109375 C 5.71875 -8.109375 6.46875 -7.929688 7.125 -7.578125 C 7.789062 -7.234375 8.3125 -6.75 8.6875 -6.125 C 9.0625 -5.5 9.25 -4.789062 9.25 -4 C 9.25 -3.207031 9.0625 -2.5 8.6875 -1.875 C 8.3125 -1.25 7.789062 -0.757812 7.125 -0.40625 C 6.46875 -0.0507812 5.71875 0.125 4.875 0.125 Z M 4.875 -1.78125 C 5.46875 -1.78125 5.953125 -1.976562 6.328125 -2.375 C 6.710938 -2.78125 6.90625 -3.320312 6.90625 -4 C 6.90625 -4.664062 6.710938 -5.203125 6.328125 -5.609375 C 5.953125 -6.015625 5.46875 -6.21875 4.875 -6.21875 C 4.28125 -6.21875 3.789062 -6.015625 3.40625 -5.609375 C 3.019531 -5.203125 2.828125 -4.664062 2.828125 -4 C 2.828125 -3.320312 3.019531 -2.78125 3.40625 -2.375 C 3.789062 -1.976562 4.28125 -1.78125 4.875 -1.78125 Z M 4.875 -1.78125 "/></g></g></g><g fill="#ffffff" fill-opacity="1"><g transform="translate(155.635478, 198.360501)"><g><path d="M 11.3125 -8.109375 C 12.3125 -8.109375 13.101562 -7.8125 13.6875 -7.21875 C 14.28125 -6.632812 14.578125 -5.753906 14.578125 -4.578125 L 14.578125 0 L 12.265625 0 L 12.265625 -4.21875 C 12.265625 -4.851562 12.128906 -5.328125 11.859375 -5.640625 C 11.597656 -5.953125 11.226562 -6.109375 10.75 -6.109375 C 10.195312 -6.109375 9.757812 -5.929688 9.4375 -5.578125 C 9.125 -5.222656 8.96875 -4.703125 8.96875 -4.015625 L 8.96875 0 L 6.65625 0 L 6.65625 -4.21875 C 6.65625 -5.476562 6.148438 -6.109375 5.140625 -6.109375 C 4.609375 -6.109375 4.179688 -5.929688 3.859375 -5.578125 C 3.546875 -5.222656 3.390625 -4.703125 3.390625 -4.015625 L 3.390625 0 L 1.0625 0 L 1.0625 -8 L 3.28125 -8 L 3.28125 -7.078125 C 3.582031 -7.410156 3.945312 -7.664062 4.375 -7.84375 C 4.800781 -8.019531 5.273438 -8.109375 5.796875 -8.109375 C 6.359375 -8.109375 6.867188 -7.992188 7.328125 -7.765625 C 7.785156 -7.546875 8.148438 -7.226562 8.421875 -6.8125 C 8.753906 -7.226562 9.171875 -7.546875 9.671875 -7.765625 C 10.171875 -7.992188 10.71875 -8.109375 11.3125 -8.109375 Z M 11.3125 -8.109375 "/></g></g></g><g fill="#ffffff" fill-opacity="1"><g transform="translate(170.616211, 198.360501)"><g><path d="M 11.3125 -8.109375 C 12.3125 -8.109375 13.101562 -7.8125 13.6875 -7.21875 C 14.28125 -6.632812 14.578125 -5.753906 14.578125 -4.578125 L 14.578125 0 L 12.265625 0 L 12.265625 -4.21875 C 12.265625 -4.851562 12.128906 -5.328125 11.859375 -5.640625 C 11.597656 -5.953125 11.226562 -6.109375 10.75 -6.109375 C 10.195312 -6.109375 9.757812 -5.929688 9.4375 -5.578125 C 9.125 -5.222656 8.96875 -4.703125 8.96875 -4.015625 L 8.96875 0 L 6.65625 0 L 6.65625 -4.21875 C 6.65625 -5.476562 6.148438 -6.109375 5.140625 -6.109375 C 4.609375 -6.109375 4.179688 -5.929688 3.859375 -5.578125 C 3.546875 -5.222656 3.390625 -4.703125 3.390625 -4.015625 L 3.390625 0 L 1.0625 0 L 1.0625 -8 L 3.28125 -8 L 3.28125 -7.078125 C 3.582031 -7.410156 3.945312 -7.664062 4.375 -7.84375 C 4.800781 -8.019531 5.273438 -8.109375 5.796875 -8.109375 C 6.359375 -8.109375 6.867188 -7.992188 7.328125 -7.765625 C 7.785156 -7.546875 8.148438 -7.226562 8.421875 -6.8125 C 8.753906 -7.226562 9.171875 -7.546875 9.671875 -7.765625 C 10.171875 -7.992188 10.71875 -8.109375 11.3125 -8.109375 Z M 11.3125 -8.109375 "/></g></g></g><g fill="#ffffff" fill-opacity="1"><g transform="translate(185.596944, 198.360501)"><g><path d="M 8.90625 -3.96875 C 8.90625 -3.9375 8.890625 -3.726562 8.859375 -3.34375 L 2.8125 -3.34375 C 2.914062 -2.84375 3.171875 -2.445312 3.578125 -2.15625 C 3.984375 -1.875 4.488281 -1.734375 5.09375 -1.734375 C 5.507812 -1.734375 5.878906 -1.796875 6.203125 -1.921875 C 6.523438 -2.046875 6.828125 -2.242188 7.109375 -2.515625 L 8.34375 -1.171875 C 7.582031 -0.304688 6.476562 0.125 5.03125 0.125 C 4.132812 0.125 3.335938 -0.0507812 2.640625 -0.40625 C 1.953125 -0.757812 1.414062 -1.25 1.03125 -1.875 C 0.65625 -2.5 0.46875 -3.207031 0.46875 -4 C 0.46875 -4.78125 0.65625 -5.484375 1.03125 -6.109375 C 1.40625 -6.742188 1.914062 -7.234375 2.5625 -7.578125 C 3.207031 -7.929688 3.929688 -8.109375 4.734375 -8.109375 C 5.515625 -8.109375 6.222656 -7.941406 6.859375 -7.609375 C 7.492188 -7.273438 7.992188 -6.789062 8.359375 -6.15625 C 8.722656 -5.53125 8.90625 -4.800781 8.90625 -3.96875 Z M 4.75 -6.359375 C 4.226562 -6.359375 3.785156 -6.207031 3.421875 -5.90625 C 3.066406 -5.613281 2.851562 -5.210938 2.78125 -4.703125 L 6.71875 -4.703125 C 6.632812 -5.203125 6.414062 -5.601562 6.0625 -5.90625 C 5.707031 -6.207031 5.269531 -6.359375 4.75 -6.359375 Z M 4.75 -6.359375 "/></g></g></g><g fill="#ffffff" fill-opacity="1"><g transform="translate(194.371363, 198.360501)"><g><path d="M 5.921875 -8.109375 C 6.921875 -8.109375 7.722656 -7.8125 8.328125 -7.21875 C 8.941406 -6.625 9.25 -5.742188 9.25 -4.578125 L 9.25 0 L 6.921875 0 L 6.921875 -4.21875 C 6.921875 -4.851562 6.78125 -5.328125 6.5 -5.640625 C 6.226562 -5.953125 5.832031 -6.109375 5.3125 -6.109375 C 4.71875 -6.109375 4.25 -5.925781 3.90625 -5.5625 C 3.5625 -5.195312 3.390625 -4.660156 3.390625 -3.953125 L 3.390625 0 L 1.0625 0 L 1.0625 -8 L 3.28125 -8 L 3.28125 -7.0625 C 3.59375 -7.394531 3.972656 -7.648438 4.421875 -7.828125 C 4.878906 -8.015625 5.378906 -8.109375 5.921875 -8.109375 Z M 5.921875 -8.109375 "/></g></g></g><g fill="#ffffff" fill-opacity="1"><g transform="translate(204.036648, 198.360501)"><g><path d="M 9.21875 -11.03125 L 9.21875 0 L 7 0 L 7 -0.921875 C 6.425781 -0.222656 5.59375 0.125 4.5 0.125 C 3.75 0.125 3.066406 -0.0390625 2.453125 -0.375 C 1.847656 -0.71875 1.367188 -1.203125 1.015625 -1.828125 C 0.671875 -2.453125 0.5 -3.175781 0.5 -4 C 0.5 -4.820312 0.671875 -5.546875 1.015625 -6.171875 C 1.367188 -6.796875 1.847656 -7.273438 2.453125 -7.609375 C 3.066406 -7.941406 3.75 -8.109375 4.5 -8.109375 C 5.519531 -8.109375 6.316406 -7.785156 6.890625 -7.140625 L 6.890625 -11.03125 Z M 4.90625 -1.78125 C 5.488281 -1.78125 5.972656 -1.976562 6.359375 -2.375 C 6.742188 -2.78125 6.9375 -3.320312 6.9375 -4 C 6.9375 -4.664062 6.742188 -5.203125 6.359375 -5.609375 C 5.972656 -6.015625 5.488281 -6.21875 4.90625 -6.21875 C 4.3125 -6.21875 3.820312 -6.015625 3.4375 -5.609375 C 3.050781 -5.203125 2.859375 -4.664062 2.859375 -4 C 2.859375 -3.320312 3.050781 -2.78125 3.4375 -2.375 C 3.820312 -1.976562 4.3125 -1.78125 4.90625 -1.78125 Z M 4.90625 -1.78125 "/></g></g></g><g fill="#ffffff" fill-opacity="1"><g transform="translate(213.716775, 198.360501)"><g><path d="M 4.296875 -8.109375 C 5.535156 -8.109375 6.484375 -7.8125 7.140625 -7.21875 C 7.804688 -6.632812 8.140625 -5.75 8.140625 -4.5625 L 8.140625 0 L 5.96875 0 L 5.96875 -1 C 5.53125 -0.25 4.71875 0.125 3.53125 0.125 C 2.914062 0.125 2.382812 0.0195312 1.9375 -0.1875 C 1.488281 -0.394531 1.144531 -0.679688 0.90625 -1.046875 C 0.664062 -1.421875 0.546875 -1.835938 0.546875 -2.296875 C 0.546875 -3.046875 0.828125 -3.632812 1.390625 -4.0625 C 1.953125 -4.488281 2.816406 -4.703125 3.984375 -4.703125 L 5.828125 -4.703125 C 5.828125 -5.203125 5.671875 -5.585938 5.359375 -5.859375 C 5.054688 -6.128906 4.597656 -6.265625 3.984375 -6.265625 C 3.554688 -6.265625 3.132812 -6.195312 2.71875 -6.0625 C 2.3125 -5.9375 1.960938 -5.757812 1.671875 -5.53125 L 0.84375 -7.140625 C 1.28125 -7.453125 1.800781 -7.691406 2.40625 -7.859375 C 3.019531 -8.023438 3.648438 -8.109375 4.296875 -8.109375 Z M 4.109375 -1.4375 C 4.503906 -1.4375 4.851562 -1.523438 5.15625 -1.703125 C 5.46875 -1.890625 5.691406 -2.164062 5.828125 -2.53125 L 5.828125 -3.34375 L 4.234375 -3.34375 C 3.285156 -3.34375 2.8125 -3.03125 2.8125 -2.40625 C 2.8125 -2.113281 2.925781 -1.878906 3.15625 -1.703125 C 3.382812 -1.523438 3.703125 -1.4375 4.109375 -1.4375 Z M 4.109375 -1.4375 "/></g></g></g><g fill="#ffffff" fill-opacity="1"><g transform="translate(222.283335, 198.360501)"><g><path d="M 6.21875 -0.390625 C 6 -0.222656 5.722656 -0.09375 5.390625 0 C 5.054688 0.0820312 4.707031 0.125 4.34375 0.125 C 3.382812 0.125 2.644531 -0.117188 2.125 -0.609375 C 1.613281 -1.097656 1.359375 -1.8125 1.359375 -2.75 L 1.359375 -6.03125 L 0.125 -6.03125 L 0.125 -7.8125 L 1.359375 -7.8125 L 1.359375 -9.765625 L 3.671875 -9.765625 L 3.671875 -7.8125 L 5.65625 -7.8125 L 5.65625 -6.03125 L 3.671875 -6.03125 L 3.671875 -2.78125 C 3.671875 -2.445312 3.753906 -2.1875 3.921875 -2 C 4.097656 -1.8125 4.347656 -1.71875 4.671875 -1.71875 C 5.035156 -1.71875 5.347656 -1.816406 5.609375 -2.015625 Z M 6.21875 -0.390625 "/></g></g></g><g fill="#ffffff" fill-opacity="1"><g transform="translate(228.14762, 198.360501)"><g><path d="M 1.0625 -8 L 3.390625 -8 L 3.390625 0 L 1.0625 0 Z M 2.234375 -9.109375 C 1.804688 -9.109375 1.457031 -9.234375 1.1875 -9.484375 C 0.914062 -9.734375 0.78125 -10.039062 0.78125 -10.40625 C 0.78125 -10.769531 0.914062 -11.070312 1.1875 -11.3125 C 1.457031 -11.5625 1.804688 -11.6875 2.234375 -11.6875 C 2.660156 -11.6875 3.003906 -11.566406 3.265625 -11.328125 C 3.535156 -11.097656 3.671875 -10.804688 3.671875 -10.453125 C 3.671875 -10.054688 3.535156 -9.734375 3.265625 -9.484375 C 3.003906 -9.234375 2.660156 -9.109375 2.234375 -9.109375 Z M 2.234375 -9.109375 "/></g></g></g><g fill="#ffffff" fill-opacity="1"><g transform="translate(232.022314, 198.360501)"><g><path d="M 4.875 0.125 C 4.03125 0.125 3.273438 -0.0507812 2.609375 -0.40625 C 1.941406 -0.757812 1.414062 -1.25 1.03125 -1.875 C 0.65625 -2.5 0.46875 -3.207031 0.46875 -4 C 0.46875 -4.789062 0.65625 -5.5 1.03125 -6.125 C 1.414062 -6.75 1.941406 -7.234375 2.609375 -7.578125 C 3.273438 -7.929688 4.03125 -8.109375 4.875 -8.109375 C 5.71875 -8.109375 6.46875 -7.929688 7.125 -7.578125 C 7.789062 -7.234375 8.3125 -6.75 8.6875 -6.125 C 9.0625 -5.5 9.25 -4.789062 9.25 -4 C 9.25 -3.207031 9.0625 -2.5 8.6875 -1.875 C 8.3125 -1.25 7.789062 -0.757812 7.125 -0.40625 C 6.46875 -0.0507812 5.71875 0.125 4.875 0.125 Z M 4.875 -1.78125 C 5.46875 -1.78125 5.953125 -1.976562 6.328125 -2.375 C 6.710938 -2.78125 6.90625 -3.320312 6.90625 -4 C 6.90625 -4.664062 6.710938 -5.203125 6.328125 -5.609375 C 5.953125 -6.015625 5.46875 -6.21875 4.875 -6.21875 C 4.28125 -6.21875 3.789062 -6.015625 3.40625 -5.609375 C 3.019531 -5.203125 2.828125 -4.664062 2.828125 -4 C 2.828125 -3.320312 3.019531 -2.78125 3.40625 -2.375 C 3.789062 -1.976562 4.28125 -1.78125 4.875 -1.78125 Z M 4.875 -1.78125 "/></g></g></g><g fill="#ffffff" fill-opacity="1"><g transform="translate(241.153085, 198.360501)"><g><path d="M 5.921875 -8.109375 C 6.921875 -8.109375 7.722656 -7.8125 8.328125 -7.21875 C 8.941406 -6.625 9.25 -5.742188 9.25 -4.578125 L 9.25 0 L 6.921875 0 L 6.921875 -4.21875 C 6.921875 -4.851562 6.78125 -5.328125 6.5 -5.640625 C 6.226562 -5.953125 5.832031 -6.109375 5.3125 -6.109375 C 4.71875 -6.109375 4.25 -5.925781 3.90625 -5.5625 C 3.5625 -5.195312 3.390625 -4.660156 3.390625 -3.953125 L 3.390625 0 L 1.0625 0 L 1.0625 -8 L 3.28125 -8 L 3.28125 -7.0625 C 3.59375 -7.394531 3.972656 -7.648438 4.421875 -7.828125 C 4.878906 -8.015625 5.378906 -8.109375 5.921875 -8.109375 Z M 5.921875 -8.109375 "/></g></g></g><g fill="#ffffff" fill-opacity="1"><g transform="translate(250.82103, 198.360501)"><g/></g></g><g fill="#ffffff" fill-opacity="1"><g transform="translate(254.428476, 198.360501)"><g/></g></g><g fill="#ffffff" fill-opacity="1"><g transform="translate(258.035922, 198.360501)"><g/></g></g><g fill="#ffffff" fill-opacity="1"><g transform="translate(261.649154, 198.360501)"><g><path d="M 3.765625 0.125 C 3.097656 0.125 2.445312 0.0390625 1.8125 -0.125 C 1.175781 -0.289062 0.671875 -0.5 0.296875 -0.75 L 1.0625 -2.40625 C 1.425781 -2.175781 1.859375 -1.988281 2.359375 -1.84375 C 2.867188 -1.707031 3.363281 -1.640625 3.84375 -1.640625 C 4.820312 -1.640625 5.3125 -1.878906 5.3125 -2.359375 C 5.3125 -2.585938 5.175781 -2.75 4.90625 -2.84375 C 4.644531 -2.945312 4.238281 -3.035156 3.6875 -3.109375 C 3.03125 -3.203125 2.488281 -3.3125 2.0625 -3.4375 C 1.632812 -3.570312 1.265625 -3.800781 0.953125 -4.125 C 0.640625 -4.457031 0.484375 -4.925781 0.484375 -5.53125 C 0.484375 -6.03125 0.628906 -6.472656 0.921875 -6.859375 C 1.210938 -7.253906 1.640625 -7.5625 2.203125 -7.78125 C 2.765625 -8 3.425781 -8.109375 4.1875 -8.109375 C 4.75 -8.109375 5.3125 -8.046875 5.875 -7.921875 C 6.4375 -7.796875 6.898438 -7.628906 7.265625 -7.421875 L 6.5 -5.765625 C 5.789062 -6.160156 5.019531 -6.359375 4.1875 -6.359375 C 3.695312 -6.359375 3.328125 -6.285156 3.078125 -6.140625 C 2.828125 -6.003906 2.703125 -5.828125 2.703125 -5.609375 C 2.703125 -5.367188 2.832031 -5.195312 3.09375 -5.09375 C 3.363281 -5 3.796875 -4.90625 4.390625 -4.8125 C 5.035156 -4.707031 5.566406 -4.59375 5.984375 -4.46875 C 6.398438 -4.34375 6.757812 -4.113281 7.0625 -3.78125 C 7.375 -3.457031 7.53125 -3.003906 7.53125 -2.421875 C 7.53125 -1.921875 7.378906 -1.476562 7.078125 -1.09375 C 6.785156 -0.707031 6.351562 -0.40625 5.78125 -0.1875 C 5.21875 0.0195312 4.546875 0.125 3.765625 0.125 Z M 3.765625 0.125 "/></g></g></g><g fill="#ffffff" fill-opacity="1"><g transform="translate(268.938817, 198.360501)"><g><path d="M 9 -8 L 5.390625 0.484375 C 5.023438 1.410156 4.570312 2.0625 4.03125 2.4375 C 3.488281 2.8125 2.835938 3 2.078125 3 C 1.660156 3 1.25 2.929688 0.84375 2.796875 C 0.4375 2.671875 0.101562 2.5 -0.15625 2.28125 L 0.703125 0.625 C 0.878906 0.78125 1.082031 0.898438 1.3125 0.984375 C 1.550781 1.078125 1.78125 1.125 2 1.125 C 2.320312 1.125 2.582031 1.046875 2.78125 0.890625 C 2.976562 0.742188 3.15625 0.492188 3.3125 0.140625 L 3.34375 0.0625 L -0.125 -8 L 2.28125 -8 L 4.515625 -2.578125 L 6.78125 -8 Z M 9 -8 "/></g></g></g><g fill="#ffffff" fill-opacity="1"><g transform="translate(277.223269, 198.360501)"><g><path d="M 3.765625 0.125 C 3.097656 0.125 2.445312 0.0390625 1.8125 -0.125 C 1.175781 -0.289062 0.671875 -0.5 0.296875 -0.75 L 1.0625 -2.40625 C 1.425781 -2.175781 1.859375 -1.988281 2.359375 -1.84375 C 2.867188 -1.707031 3.363281 -1.640625 3.84375 -1.640625 C 4.820312 -1.640625 5.3125 -1.878906 5.3125 -2.359375 C 5.3125 -2.585938 5.175781 -2.75 4.90625 -2.84375 C 4.644531 -2.945312 4.238281 -3.035156 3.6875 -3.109375 C 3.03125 -3.203125 2.488281 -3.3125 2.0625 -3.4375 C 1.632812 -3.570312 1.265625 -3.800781 0.953125 -4.125 C 0.640625 -4.457031 0.484375 -4.925781 0.484375 -5.53125 C 0.484375 -6.03125 0.628906 -6.472656 0.921875 -6.859375 C 1.210938 -7.253906 1.640625 -7.5625 2.203125 -7.78125 C 2.765625 -8 3.425781 -8.109375 4.1875 -8.109375 C 4.75 -8.109375 5.3125 -8.046875 5.875 -7.921875 C 6.4375 -7.796875 6.898438 -7.628906 7.265625 -7.421875 L 6.5 -5.765625 C 5.789062 -6.160156 5.019531 -6.359375 4.1875 -6.359375 C 3.695312 -6.359375 3.328125 -6.285156 3.078125 -6.140625 C 2.828125 -6.003906 2.703125 -5.828125 2.703125 -5.609375 C 2.703125 -5.367188 2.832031 -5.195312 3.09375 -5.09375 C 3.363281 -5 3.796875 -4.90625 4.390625 -4.8125 C 5.035156 -4.707031 5.566406 -4.59375 5.984375 -4.46875 C 6.398438 -4.34375 6.757812 -4.113281 7.0625 -3.78125 C 7.375 -3.457031 7.53125 -3.003906 7.53125 -2.421875 C 7.53125 -1.921875 7.378906 -1.476562 7.078125 -1.09375 C 6.785156 -0.707031 6.351562 -0.40625 5.78125 -0.1875 C 5.21875 0.0195312 4.546875 0.125 3.765625 0.125 Z M 3.765625 0.125 "/></g></g></g><g fill="#ffffff" fill-opacity="1"><g transform="translate(284.512932, 198.360501)"><g><path d="M 6.21875 -0.390625 C 6 -0.222656 5.722656 -0.09375 5.390625 0 C 5.054688 0.0820312 4.707031 0.125 4.34375 0.125 C 3.382812 0.125 2.644531 -0.117188 2.125 -0.609375 C 1.613281 -1.097656 1.359375 -1.8125 1.359375 -2.75 L 1.359375 -6.03125 L 0.125 -6.03125 L 0.125 -7.8125 L 1.359375 -7.8125 L 1.359375 -9.765625 L 3.671875 -9.765625 L 3.671875 -7.8125 L 5.65625 -7.8125 L 5.65625 -6.03125 L 3.671875 -6.03125 L 3.671875 -2.78125 C 3.671875 -2.445312 3.753906 -2.1875 3.921875 -2 C 4.097656 -1.8125 4.347656 -1.71875 4.671875 -1.71875 C 5.035156 -1.71875 5.347656 -1.816406 5.609375 -2.015625 Z M 6.21875 -0.390625 "/></g></g></g><g fill="#ffffff" fill-opacity="1"><g transform="translate(290.377222, 198.360501)"><g><path d="M 8.90625 -3.96875 C 8.90625 -3.9375 8.890625 -3.726562 8.859375 -3.34375 L 2.8125 -3.34375 C 2.914062 -2.84375 3.171875 -2.445312 3.578125 -2.15625 C 3.984375 -1.875 4.488281 -1.734375 5.09375 -1.734375 C 5.507812 -1.734375 5.878906 -1.796875 6.203125 -1.921875 C 6.523438 -2.046875 6.828125 -2.242188 7.109375 -2.515625 L 8.34375 -1.171875 C 7.582031 -0.304688 6.476562 0.125 5.03125 0.125 C 4.132812 0.125 3.335938 -0.0507812 2.640625 -0.40625 C 1.953125 -0.757812 1.414062 -1.25 1.03125 -1.875 C 0.65625 -2.5 0.46875 -3.207031 0.46875 -4 C 0.46875 -4.78125 0.65625 -5.484375 1.03125 -6.109375 C 1.40625 -6.742188 1.914062 -7.234375 2.5625 -7.578125 C 3.207031 -7.929688 3.929688 -8.109375 4.734375 -8.109375 C 5.515625 -8.109375 6.222656 -7.941406 6.859375 -7.609375 C 7.492188 -7.273438 7.992188 -6.789062 8.359375 -6.15625 C 8.722656 -5.53125 8.90625 -4.800781 8.90625 -3.96875 Z M 4.75 -6.359375 C 4.226562 -6.359375 3.785156 -6.207031 3.421875 -5.90625 C 3.066406 -5.613281 2.851562 -5.210938 2.78125 -4.703125 L 6.71875 -4.703125 C 6.632812 -5.203125 6.414062 -5.601562 6.0625 -5.90625 C 5.707031 -6.207031 5.269531 -6.359375 4.75 -6.359375 Z M 4.75 -6.359375 "/></g></g></g><g fill="#ffffff" fill-opacity="1"><g transform="translate(299.151641, 198.360501)"><g><path d="M 11.3125 -8.109375 C 12.3125 -8.109375 13.101562 -7.8125 13.6875 -7.21875 C 14.28125 -6.632812 14.578125 -5.753906 14.578125 -4.578125 L 14.578125 0 L 12.265625 0 L 12.265625 -4.21875 C 12.265625 -4.851562 12.128906 -5.328125 11.859375 -5.640625 C 11.597656 -5.953125 11.226562 -6.109375 10.75 -6.109375 C 10.195312 -6.109375 9.757812 -5.929688 9.4375 -5.578125 C 9.125 -5.222656 8.96875 -4.703125 8.96875 -4.015625 L 8.96875 0 L 6.65625 0 L 6.65625 -4.21875 C 6.65625 -5.476562 6.148438 -6.109375 5.140625 -6.109375 C 4.609375 -6.109375 4.179688 -5.929688 3.859375 -5.578125 C 3.546875 -5.222656 3.390625 -4.703125 3.390625 -4.015625 L 3.390625 0 L 1.0625 0 L 1.0625 -8 L 3.28125 -8 L 3.28125 -7.078125 C 3.582031 -7.410156 3.945312 -7.664062 4.375 -7.84375 C 4.800781 -8.019531 5.273438 -8.109375 5.796875 -8.109375 C 6.359375 -8.109375 6.867188 -7.992188 7.328125 -7.765625 C 7.785156 -7.546875 8.148438 -7.226562 8.421875 -6.8125 C 8.753906 -7.226562 9.171875 -7.546875 9.671875 -7.765625 C 10.171875 -7.992188 10.71875 -8.109375 11.3125 -8.109375 Z M 11.3125 -8.109375 "/></g></g></g></svg>