<svg xmlns="http://www.w3.org/2000/svg" xmlns:xlink="http://www.w3.org/1999/xlink" width="940" zoomAndPan="magnify" viewBox="0 0 705 337.499995" height="450" preserveAspectRatio="xMidYMid meet" version="1.0"><defs><g/></defs><g fill="#e50914" fill-opacity="1"><g transform="translate(-10.815268, 276.125676)"><g><path d="M 263.203125 0 L 213.953125 0 L 213.625 -142.734375 L 160.921875 -21.953125 L 124.546875 -21.953125 L 71.84375 -142.734375 L 71.84375 0 L 21.953125 0 L 21.953125 -219.90625 L 83.125 -219.90625 L 142.734375 -89.09375 L 202.34375 -219.90625 L 263.203125 -219.90625 Z M 263.203125 0 "/></g></g></g><g fill="#e50914" fill-opacity="1"><g transform="translate(274.624075, 276.125676)"><g><path d="M 154.34375 0 L 121.71875 -61.796875 L 77.796875 -61.796875 L 77.796875 0 L 21.953125 0 L 21.953125 -219.59375 L 120.140625 -219.59375 C 149.210938 -219.59375 171.695312 -212.953125 187.59375 -199.671875 C 203.488281 -186.390625 211.4375 -167.515625 211.4375 -143.046875 C 211.4375 -109.171875 198.15625 -85.644531 171.59375 -72.46875 L 217.703125 0 Z M 77.796875 -105.71875 L 120.140625 -105.71875 C 132.273438 -105.71875 141.6875 -108.75 148.375 -114.8125 C 155.070312 -120.875 158.421875 -129.660156 158.421875 -141.171875 C 158.421875 -152.460938 155.070312 -161.035156 148.375 -166.890625 C 141.6875 -172.742188 132.273438 -175.671875 120.140625 -175.671875 L 77.796875 -175.671875 Z M 77.796875 -105.71875 "/></g></g></g><g fill="#e50914" fill-opacity="1"><g transform="translate(501.720893, 276.125676)"><g><path d="M 106.34375 -222.109375 C 139.175781 -222.109375 168.035156 -213.953125 192.921875 -197.640625 L 171.90625 -154.03125 C 160.40625 -160.71875 148.066406 -166.203125 134.890625 -170.484375 C 121.710938 -174.773438 110.628906 -176.921875 101.640625 -176.921875 C 85.535156 -176.921875 77.484375 -171.585938 77.484375 -160.921875 C 77.484375 -154.023438 81.457031 -148.484375 89.40625 -144.296875 C 97.351562 -140.117188 107.023438 -136.515625 118.421875 -133.484375 C 129.816406 -130.453125 141.210938 -126.789062 152.609375 -122.5 C 164.015625 -118.207031 173.691406 -111.25 181.640625 -101.625 C 189.585938 -92.007812 193.5625 -79.882812 193.5625 -65.25 C 193.5625 -44.125 185.296875 -27.65625 168.765625 -15.84375 C 152.242188 -4.03125 131.226562 1.875 105.71875 1.875 C 87.519531 1.875 69.53125 -1.257812 51.75 -7.53125 C 33.976562 -13.800781 18.503906 -22.375 5.328125 -33.25 L 26.984375 -76.234375 C 38.066406 -66.609375 51.132812 -58.710938 66.1875 -52.546875 C 81.25 -46.378906 94.632812 -43.296875 106.34375 -43.296875 C 115.332031 -43.296875 122.335938 -44.914062 127.359375 -48.15625 C 132.378906 -51.394531 134.890625 -56.148438 134.890625 -62.421875 C 134.890625 -68.492188 132.015625 -73.566406 126.265625 -77.640625 C 120.515625 -81.722656 113.351562 -84.753906 104.78125 -86.734375 C 96.207031 -88.722656 86.898438 -91.390625 76.859375 -94.734375 C 66.816406 -98.078125 57.507812 -101.734375 48.9375 -105.703125 C 40.363281 -109.679688 33.203125 -116.007812 27.453125 -124.6875 C 21.703125 -133.375 18.828125 -143.78125 18.828125 -155.90625 C 18.828125 -175.988281 26.820312 -192.039062 42.8125 -204.0625 C 58.8125 -216.09375 79.988281 -222.109375 106.34375 -222.109375 Z M 106.34375 -222.109375 "/></g></g></g><g fill="#ffffff" fill-opacity="1"><g transform="translate(8.516385, 309.758129)"><g><path d="M 29.234375 0 L 29.203125 -17.0625 L 20.828125 -3 L 17.875 -3 L 9.546875 -16.6875 L 9.546875 0 L 3.375 0 L 3.375 -28.421875 L 8.8125 -28.421875 L 19.453125 -10.765625 L 29.921875 -28.421875 L 35.328125 -28.421875 L 35.40625 0 Z M 29.234375 0 "/></g></g></g><g fill="#ffffff" fill-opacity="1"><g transform="translate(45.665315, 309.758129)"><g><path d="M 13.3125 0.328125 C 11.019531 0.328125 8.957031 -0.148438 7.125 -1.109375 C 5.300781 -2.078125 3.875 -3.410156 2.84375 -5.109375 C 1.8125 -6.816406 1.296875 -8.753906 1.296875 -10.921875 C 1.296875 -13.085938 1.8125 -15.023438 2.84375 -16.734375 C 3.875 -18.441406 5.300781 -19.773438 7.125 -20.734375 C 8.957031 -21.691406 11.019531 -22.171875 13.3125 -22.171875 C 15.613281 -22.171875 17.671875 -21.691406 19.484375 -20.734375 C 21.304688 -19.773438 22.726562 -18.441406 23.75 -16.734375 C 24.78125 -15.023438 25.296875 -13.085938 25.296875 -10.921875 C 25.296875 -8.753906 24.78125 -6.816406 23.75 -5.109375 C 22.726562 -3.410156 21.304688 -2.078125 19.484375 -1.109375 C 17.671875 -0.148438 15.613281 0.328125 13.3125 0.328125 Z M 13.3125 -4.875 C 14.9375 -4.875 16.269531 -5.421875 17.3125 -6.515625 C 18.363281 -7.609375 18.890625 -9.078125 18.890625 -10.921875 C 18.890625 -12.765625 18.363281 -14.234375 17.3125 -15.328125 C 16.269531 -16.421875 14.9375 -16.96875 13.3125 -16.96875 C 11.695312 -16.96875 10.359375 -16.421875 9.296875 -15.328125 C 8.242188 -14.234375 7.71875 -12.765625 7.71875 -10.921875 C 7.71875 -9.078125 8.242188 -7.609375 9.296875 -6.515625 C 10.359375 -5.421875 11.695312 -4.875 13.3125 -4.875 Z M 13.3125 -4.875 "/></g></g></g><g fill="#ffffff" fill-opacity="1"><g transform="translate(70.634038, 309.758129)"><g><path d="M 24.609375 -21.84375 L 15.390625 0 L 8.859375 0 L -0.328125 -21.84375 L 6.21875 -21.84375 L 12.265625 -6.984375 L 18.515625 -21.84375 Z M 24.609375 -21.84375 "/></g></g></g><g fill="#ffffff" fill-opacity="1"><g transform="translate(93.288524, 309.758129)"><g><path d="M 2.921875 -21.84375 L 9.265625 -21.84375 L 9.265625 0 L 2.921875 0 Z M 6.09375 -24.890625 C 4.9375 -24.890625 3.988281 -25.226562 3.25 -25.90625 C 2.519531 -26.582031 2.15625 -27.421875 2.15625 -28.421875 C 2.15625 -29.421875 2.519531 -30.257812 3.25 -30.9375 C 3.988281 -31.613281 4.9375 -31.953125 6.09375 -31.953125 C 7.257812 -31.953125 8.207031 -31.628906 8.9375 -30.984375 C 9.664062 -30.335938 10.03125 -29.523438 10.03125 -28.546875 C 10.03125 -27.492188 9.664062 -26.617188 8.9375 -25.921875 C 8.207031 -25.234375 7.257812 -24.890625 6.09375 -24.890625 Z M 6.09375 -24.890625 "/></g></g></g><g fill="#ffffff" fill-opacity="1"><g transform="translate(103.884603, 309.758129)"><g><path d="M 24.328125 -10.84375 C 24.328125 -10.757812 24.285156 -10.191406 24.203125 -9.140625 L 7.671875 -9.140625 C 7.972656 -7.785156 8.675781 -6.710938 9.78125 -5.921875 C 10.894531 -5.140625 12.273438 -4.75 13.921875 -4.75 C 15.066406 -4.75 16.078125 -4.914062 16.953125 -5.25 C 17.835938 -5.59375 18.65625 -6.128906 19.40625 -6.859375 L 22.78125 -3.203125 C 20.726562 -0.847656 17.722656 0.328125 13.765625 0.328125 C 11.304688 0.328125 9.128906 -0.148438 7.234375 -1.109375 C 5.335938 -2.078125 3.875 -3.410156 2.84375 -5.109375 C 1.8125 -6.816406 1.296875 -8.753906 1.296875 -10.921875 C 1.296875 -13.054688 1.800781 -14.984375 2.8125 -16.703125 C 3.832031 -18.429688 5.226562 -19.773438 7 -20.734375 C 8.78125 -21.691406 10.765625 -22.171875 12.953125 -22.171875 C 15.085938 -22.171875 17.019531 -21.707031 18.75 -20.78125 C 20.488281 -19.863281 21.851562 -18.546875 22.84375 -16.828125 C 23.832031 -15.109375 24.328125 -13.113281 24.328125 -10.84375 Z M 13 -17.375 C 11.5625 -17.375 10.351562 -16.96875 9.375 -16.15625 C 8.40625 -15.34375 7.8125 -14.234375 7.59375 -12.828125 L 18.359375 -12.828125 C 18.140625 -14.210938 17.539062 -15.316406 16.5625 -16.140625 C 15.59375 -16.960938 14.40625 -17.375 13 -17.375 Z M 13 -17.375 "/></g></g></g><g fill="#ffffff" fill-opacity="1"><g transform="translate(127.886597, 309.758129)"><g/></g></g><g fill="#ffffff" fill-opacity="1"><g transform="translate(137.75187, 309.758129)"><g/></g></g><g fill="#ffffff" fill-opacity="1"><g transform="translate(147.617144, 309.758129)"><g/></g></g><g fill="#ffffff" fill-opacity="1"><g transform="translate(157.486575, 309.758129)"><g><path d="M 21.484375 0 L 16 -7.921875 L 9.953125 -7.921875 L 9.953125 0 L 3.375 0 L 3.375 -28.421875 L 15.671875 -28.421875 C 18.191406 -28.421875 20.378906 -28 22.234375 -27.15625 C 24.085938 -26.320312 25.515625 -25.132812 26.515625 -23.59375 C 27.515625 -22.050781 28.015625 -20.222656 28.015625 -18.109375 C 28.015625 -15.992188 27.503906 -14.171875 26.484375 -12.640625 C 25.472656 -11.117188 24.035156 -9.953125 22.171875 -9.140625 L 28.546875 0 Z M 21.359375 -18.109375 C 21.359375 -19.703125 20.84375 -20.925781 19.8125 -21.78125 C 18.789062 -22.632812 17.289062 -23.0625 15.3125 -23.0625 L 9.953125 -23.0625 L 9.953125 -13.15625 L 15.3125 -13.15625 C 17.289062 -13.15625 18.789062 -13.585938 19.8125 -14.453125 C 20.84375 -15.316406 21.359375 -16.535156 21.359375 -18.109375 Z M 21.359375 -18.109375 "/></g></g></g><g fill="#ffffff" fill-opacity="1"><g transform="translate(185.703355, 309.758129)"><g><path d="M 24.328125 -10.84375 C 24.328125 -10.757812 24.285156 -10.191406 24.203125 -9.140625 L 7.671875 -9.140625 C 7.972656 -7.785156 8.675781 -6.710938 9.78125 -5.921875 C 10.894531 -5.140625 12.273438 -4.75 13.921875 -4.75 C 15.066406 -4.75 16.078125 -4.914062 16.953125 -5.25 C 17.835938 -5.59375 18.65625 -6.128906 19.40625 -6.859375 L 22.78125 -3.203125 C 20.726562 -0.847656 17.722656 0.328125 13.765625 0.328125 C 11.304688 0.328125 9.128906 -0.148438 7.234375 -1.109375 C 5.335938 -2.078125 3.875 -3.410156 2.84375 -5.109375 C 1.8125 -6.816406 1.296875 -8.753906 1.296875 -10.921875 C 1.296875 -13.054688 1.800781 -14.984375 2.8125 -16.703125 C 3.832031 -18.429688 5.226562 -19.773438 7 -20.734375 C 8.78125 -21.691406 10.765625 -22.171875 12.953125 -22.171875 C 15.085938 -22.171875 17.019531 -21.707031 18.75 -20.78125 C 20.488281 -19.863281 21.851562 -18.546875 22.84375 -16.828125 C 23.832031 -15.109375 24.328125 -13.113281 24.328125 -10.84375 Z M 13 -17.375 C 11.5625 -17.375 10.351562 -16.96875 9.375 -16.15625 C 8.40625 -15.34375 7.8125 -14.234375 7.59375 -12.828125 L 18.359375 -12.828125 C 18.140625 -14.210938 17.539062 -15.316406 16.5625 -16.140625 C 15.59375 -16.960938 14.40625 -17.375 13 -17.375 Z M 13 -17.375 "/></g></g></g><g fill="#ffffff" fill-opacity="1"><g transform="translate(209.697668, 309.758129)"><g><path d="M 13.484375 0.328125 C 11.148438 0.328125 9.054688 -0.148438 7.203125 -1.109375 C 5.347656 -2.078125 3.898438 -3.410156 2.859375 -5.109375 C 1.816406 -6.816406 1.296875 -8.753906 1.296875 -10.921875 C 1.296875 -13.085938 1.816406 -15.023438 2.859375 -16.734375 C 3.898438 -18.441406 5.347656 -19.773438 7.203125 -20.734375 C 9.054688 -21.691406 11.148438 -22.171875 13.484375 -22.171875 C 15.785156 -22.171875 17.796875 -21.691406 19.515625 -20.734375 C 21.234375 -19.773438 22.484375 -18.398438 23.265625 -16.609375 L 18.359375 -13.96875 C 17.222656 -15.96875 15.582031 -16.96875 13.4375 -16.96875 C 11.789062 -16.96875 10.425781 -16.425781 9.34375 -15.34375 C 8.257812 -14.257812 7.71875 -12.785156 7.71875 -10.921875 C 7.71875 -9.054688 8.257812 -7.582031 9.34375 -6.5 C 10.425781 -5.414062 11.789062 -4.875 13.4375 -4.875 C 15.601562 -4.875 17.242188 -5.875 18.359375 -7.875 L 23.265625 -5.203125 C 22.484375 -3.460938 21.234375 -2.101562 19.515625 -1.125 C 17.796875 -0.15625 15.785156 0.328125 13.484375 0.328125 Z M 13.484375 0.328125 "/></g></g></g><g fill="#ffffff" fill-opacity="1"><g transform="translate(232.067944, 309.758129)"><g><path d="M 13.3125 0.328125 C 11.019531 0.328125 8.957031 -0.148438 7.125 -1.109375 C 5.300781 -2.078125 3.875 -3.410156 2.84375 -5.109375 C 1.8125 -6.816406 1.296875 -8.753906 1.296875 -10.921875 C 1.296875 -13.085938 1.8125 -15.023438 2.84375 -16.734375 C 3.875 -18.441406 5.300781 -19.773438 7.125 -20.734375 C 8.957031 -21.691406 11.019531 -22.171875 13.3125 -22.171875 C 15.613281 -22.171875 17.671875 -21.691406 19.484375 -20.734375 C 21.304688 -19.773438 22.726562 -18.441406 23.75 -16.734375 C 24.78125 -15.023438 25.296875 -13.085938 25.296875 -10.921875 C 25.296875 -8.753906 24.78125 -6.816406 23.75 -5.109375 C 22.726562 -3.410156 21.304688 -2.078125 19.484375 -1.109375 C 17.671875 -0.148438 15.613281 0.328125 13.3125 0.328125 Z M 13.3125 -4.875 C 14.9375 -4.875 16.269531 -5.421875 17.3125 -6.515625 C 18.363281 -7.609375 18.890625 -9.078125 18.890625 -10.921875 C 18.890625 -12.765625 18.363281 -14.234375 17.3125 -15.328125 C 16.269531 -16.421875 14.9375 -16.96875 13.3125 -16.96875 C 11.695312 -16.96875 10.359375 -16.421875 9.296875 -15.328125 C 8.242188 -14.234375 7.71875 -12.765625 7.71875 -10.921875 C 7.71875 -9.078125 8.242188 -7.609375 9.296875 -6.515625 C 10.359375 -5.421875 11.695312 -4.875 13.3125 -4.875 Z M 13.3125 -4.875 "/></g></g></g><g fill="#ffffff" fill-opacity="1"><g transform="translate(257.03667, 309.758129)"><g><path d="M 30.90625 -22.171875 C 33.632812 -22.171875 35.804688 -21.363281 37.421875 -19.75 C 39.035156 -18.144531 39.84375 -15.726562 39.84375 -12.5 L 39.84375 0 L 33.5 0 L 33.5 -11.53125 C 33.5 -13.257812 33.140625 -14.550781 32.421875 -15.40625 C 31.703125 -16.257812 30.679688 -16.6875 29.359375 -16.6875 C 27.867188 -16.6875 26.691406 -16.207031 25.828125 -15.25 C 24.960938 -14.289062 24.53125 -12.863281 24.53125 -10.96875 L 24.53125 0 L 18.1875 0 L 18.1875 -11.53125 C 18.1875 -14.96875 16.804688 -16.6875 14.046875 -16.6875 C 12.585938 -16.6875 11.425781 -16.207031 10.5625 -15.25 C 9.695312 -14.289062 9.265625 -12.863281 9.265625 -10.96875 L 9.265625 0 L 2.921875 0 L 2.921875 -21.84375 L 8.96875 -21.84375 L 8.96875 -19.328125 C 9.78125 -20.242188 10.773438 -20.945312 11.953125 -21.4375 C 13.128906 -21.925781 14.425781 -22.171875 15.84375 -22.171875 C 17.382812 -22.171875 18.773438 -21.863281 20.015625 -21.25 C 21.265625 -20.644531 22.269531 -19.757812 23.03125 -18.59375 C 23.914062 -19.726562 25.039062 -20.609375 26.40625 -21.234375 C 27.78125 -21.859375 29.28125 -22.171875 30.90625 -22.171875 Z M 30.90625 -22.171875 "/></g></g></g><g fill="#ffffff" fill-opacity="1"><g transform="translate(298.00207, 309.758129)"><g><path d="M 30.90625 -22.171875 C 33.632812 -22.171875 35.804688 -21.363281 37.421875 -19.75 C 39.035156 -18.144531 39.84375 -15.726562 39.84375 -12.5 L 39.84375 0 L 33.5 0 L 33.5 -11.53125 C 33.5 -13.257812 33.140625 -14.550781 32.421875 -15.40625 C 31.703125 -16.257812 30.679688 -16.6875 29.359375 -16.6875 C 27.867188 -16.6875 26.691406 -16.207031 25.828125 -15.25 C 24.960938 -14.289062 24.53125 -12.863281 24.53125 -10.96875 L 24.53125 0 L 18.1875 0 L 18.1875 -11.53125 C 18.1875 -14.96875 16.804688 -16.6875 14.046875 -16.6875 C 12.585938 -16.6875 11.425781 -16.207031 10.5625 -15.25 C 9.695312 -14.289062 9.265625 -12.863281 9.265625 -10.96875 L 9.265625 0 L 2.921875 0 L 2.921875 -21.84375 L 8.96875 -21.84375 L 8.96875 -19.328125 C 9.78125 -20.242188 10.773438 -20.945312 11.953125 -21.4375 C 13.128906 -21.925781 14.425781 -22.171875 15.84375 -22.171875 C 17.382812 -22.171875 18.773438 -21.863281 20.015625 -21.25 C 21.265625 -20.644531 22.269531 -19.757812 23.03125 -18.59375 C 23.914062 -19.726562 25.039062 -20.609375 26.40625 -21.234375 C 27.78125 -21.859375 29.28125 -22.171875 30.90625 -22.171875 Z M 30.90625 -22.171875 "/></g></g></g><g fill="#ffffff" fill-opacity="1"><g transform="translate(338.96747, 309.758129)"><g><path d="M 24.328125 -10.84375 C 24.328125 -10.757812 24.285156 -10.191406 24.203125 -9.140625 L 7.671875 -9.140625 C 7.972656 -7.785156 8.675781 -6.710938 9.78125 -5.921875 C 10.894531 -5.140625 12.273438 -4.75 13.921875 -4.75 C 15.066406 -4.75 16.078125 -4.914062 16.953125 -5.25 C 17.835938 -5.59375 18.65625 -6.128906 19.40625 -6.859375 L 22.78125 -3.203125 C 20.726562 -0.847656 17.722656 0.328125 13.765625 0.328125 C 11.304688 0.328125 9.128906 -0.148438 7.234375 -1.109375 C 5.335938 -2.078125 3.875 -3.410156 2.84375 -5.109375 C 1.8125 -6.816406 1.296875 -8.753906 1.296875 -10.921875 C 1.296875 -13.054688 1.800781 -14.984375 2.8125 -16.703125 C 3.832031 -18.429688 5.226562 -19.773438 7 -20.734375 C 8.78125 -21.691406 10.765625 -22.171875 12.953125 -22.171875 C 15.085938 -22.171875 17.019531 -21.707031 18.75 -20.78125 C 20.488281 -19.863281 21.851562 -18.546875 22.84375 -16.828125 C 23.832031 -15.109375 24.328125 -13.113281 24.328125 -10.84375 Z M 13 -17.375 C 11.5625 -17.375 10.351562 -16.96875 9.375 -16.15625 C 8.40625 -15.34375 7.8125 -14.234375 7.59375 -12.828125 L 18.359375 -12.828125 C 18.140625 -14.210938 17.539062 -15.316406 16.5625 -16.140625 C 15.59375 -16.960938 14.40625 -17.375 13 -17.375 Z M 13 -17.375 "/></g></g></g><g fill="#ffffff" fill-opacity="1"><g transform="translate(362.961774, 309.758129)"><g><path d="M 16.203125 -22.171875 C 18.910156 -22.171875 21.097656 -21.359375 22.765625 -19.734375 C 24.429688 -18.109375 25.265625 -15.695312 25.265625 -12.5 L 25.265625 0 L 18.921875 0 L 18.921875 -11.53125 C 18.921875 -13.257812 18.539062 -14.550781 17.78125 -15.40625 C 17.03125 -16.257812 15.9375 -16.6875 14.5 -16.6875 C 12.90625 -16.6875 11.632812 -16.191406 10.6875 -15.203125 C 9.738281 -14.210938 9.265625 -12.742188 9.265625 -10.796875 L 9.265625 0 L 2.921875 0 L 2.921875 -21.84375 L 8.96875 -21.84375 L 8.96875 -19.296875 C 9.8125 -20.210938 10.851562 -20.921875 12.09375 -21.421875 C 13.34375 -21.921875 14.710938 -22.171875 16.203125 -22.171875 Z M 16.203125 -22.171875 "/></g></g></g><g fill="#ffffff" fill-opacity="1"><g transform="translate(389.392114, 309.758129)"><g><path d="M 25.171875 -30.125 L 25.171875 0 L 19.125 0 L 19.125 -2.515625 C 17.550781 -0.617188 15.273438 0.328125 12.296875 0.328125 C 10.242188 0.328125 8.382812 -0.128906 6.71875 -1.046875 C 5.050781 -1.972656 3.742188 -3.285156 2.796875 -4.984375 C 1.847656 -6.691406 1.375 -8.671875 1.375 -10.921875 C 1.375 -13.171875 1.847656 -15.144531 2.796875 -16.84375 C 3.742188 -18.550781 5.050781 -19.863281 6.71875 -20.78125 C 8.382812 -21.707031 10.242188 -22.171875 12.296875 -22.171875 C 15.085938 -22.171875 17.269531 -21.289062 18.84375 -19.53125 L 18.84375 -30.125 Z M 13.40625 -4.875 C 15 -4.875 16.320312 -5.421875 17.375 -6.515625 C 18.4375 -7.609375 18.96875 -9.078125 18.96875 -10.921875 C 18.96875 -12.765625 18.4375 -14.234375 17.375 -15.328125 C 16.320312 -16.421875 15 -16.96875 13.40625 -16.96875 C 11.78125 -16.96875 10.4375 -16.421875 9.375 -15.328125 C 8.320312 -14.234375 7.796875 -12.765625 7.796875 -10.921875 C 7.796875 -9.078125 8.320312 -7.609375 9.375 -6.515625 C 10.4375 -5.421875 11.78125 -4.875 13.40625 -4.875 Z M 13.40625 -4.875 "/></g></g></g><g fill="#ffffff" fill-opacity="1"><g transform="translate(415.863073, 309.758129)"><g><path d="M 11.734375 -22.171875 C 15.117188 -22.171875 17.71875 -21.363281 19.53125 -19.75 C 21.34375 -18.144531 22.25 -15.71875 22.25 -12.46875 L 22.25 0 L 16.328125 0 L 16.328125 -2.71875 C 15.128906 -0.6875 12.910156 0.328125 9.671875 0.328125 C 7.984375 0.328125 6.523438 0.046875 5.296875 -0.515625 C 4.066406 -1.085938 3.125 -1.875 2.46875 -2.875 C 1.820312 -3.882812 1.5 -5.023438 1.5 -6.296875 C 1.5 -8.328125 2.265625 -9.921875 3.796875 -11.078125 C 5.328125 -12.242188 7.691406 -12.828125 10.890625 -12.828125 L 15.921875 -12.828125 C 15.921875 -14.210938 15.5 -15.273438 14.65625 -16.015625 C 13.820312 -16.765625 12.566406 -17.140625 10.890625 -17.140625 C 9.722656 -17.140625 8.578125 -16.957031 7.453125 -16.59375 C 6.328125 -16.226562 5.375 -15.734375 4.59375 -15.109375 L 2.3125 -19.53125 C 3.5 -20.375 4.925781 -21.023438 6.59375 -21.484375 C 8.257812 -21.941406 9.972656 -22.171875 11.734375 -22.171875 Z M 11.25 -3.9375 C 12.332031 -3.9375 13.289062 -4.1875 14.125 -4.6875 C 14.96875 -5.1875 15.566406 -5.925781 15.921875 -6.90625 L 15.921875 -9.140625 L 11.578125 -9.140625 C 8.972656 -9.140625 7.671875 -8.285156 7.671875 -6.578125 C 7.671875 -5.765625 7.988281 -5.117188 8.625 -4.640625 C 9.257812 -4.171875 10.132812 -3.9375 11.25 -3.9375 Z M 11.25 -3.9375 "/></g></g></g><g fill="#ffffff" fill-opacity="1"><g transform="translate(439.288968, 309.758129)"><g><path d="M 17.015625 -1.0625 C 16.390625 -0.59375 15.625 -0.242188 14.71875 -0.015625 C 13.8125 0.210938 12.859375 0.328125 11.859375 0.328125 C 9.253906 0.328125 7.242188 -0.332031 5.828125 -1.65625 C 4.410156 -2.988281 3.703125 -4.941406 3.703125 -7.515625 L 3.703125 -16.484375 L 0.328125 -16.484375 L 0.328125 -21.359375 L 3.703125 -21.359375 L 3.703125 -26.6875 L 10.03125 -26.6875 L 10.03125 -21.359375 L 15.46875 -21.359375 L 15.46875 -16.484375 L 10.03125 -16.484375 L 10.03125 -7.59375 C 10.03125 -6.675781 10.265625 -5.960938 10.734375 -5.453125 C 11.210938 -4.953125 11.882812 -4.703125 12.75 -4.703125 C 13.75 -4.703125 14.601562 -4.972656 15.3125 -5.515625 Z M 17.015625 -1.0625 "/></g></g></g><g fill="#ffffff" fill-opacity="1"><g transform="translate(455.325532, 309.758129)"><g><path d="M 2.921875 -21.84375 L 9.265625 -21.84375 L 9.265625 0 L 2.921875 0 Z M 6.09375 -24.890625 C 4.9375 -24.890625 3.988281 -25.226562 3.25 -25.90625 C 2.519531 -26.582031 2.15625 -27.421875 2.15625 -28.421875 C 2.15625 -29.421875 2.519531 -30.257812 3.25 -30.9375 C 3.988281 -31.613281 4.9375 -31.953125 6.09375 -31.953125 C 7.257812 -31.953125 8.207031 -31.628906 8.9375 -30.984375 C 9.664062 -30.335938 10.03125 -29.523438 10.03125 -28.546875 C 10.03125 -27.492188 9.664062 -26.617188 8.9375 -25.921875 C 8.207031 -25.234375 7.257812 -24.890625 6.09375 -24.890625 Z M 6.09375 -24.890625 "/></g></g></g><g fill="#ffffff" fill-opacity="1"><g transform="translate(465.921605, 309.758129)"><g><path d="M 13.3125 0.328125 C 11.019531 0.328125 8.957031 -0.148438 7.125 -1.109375 C 5.300781 -2.078125 3.875 -3.410156 2.84375 -5.109375 C 1.8125 -6.816406 1.296875 -8.753906 1.296875 -10.921875 C 1.296875 -13.085938 1.8125 -15.023438 2.84375 -16.734375 C 3.875 -18.441406 5.300781 -19.773438 7.125 -20.734375 C 8.957031 -21.691406 11.019531 -22.171875 13.3125 -22.171875 C 15.613281 -22.171875 17.671875 -21.691406 19.484375 -20.734375 C 21.304688 -19.773438 22.726562 -18.441406 23.75 -16.734375 C 24.78125 -15.023438 25.296875 -13.085938 25.296875 -10.921875 C 25.296875 -8.753906 24.78125 -6.816406 23.75 -5.109375 C 22.726562 -3.410156 21.304688 -2.078125 19.484375 -1.109375 C 17.671875 -0.148438 15.613281 0.328125 13.3125 0.328125 Z M 13.3125 -4.875 C 14.9375 -4.875 16.269531 -5.421875 17.3125 -6.515625 C 18.363281 -7.609375 18.890625 -9.078125 18.890625 -10.921875 C 18.890625 -12.765625 18.363281 -14.234375 17.3125 -15.328125 C 16.269531 -16.421875 14.9375 -16.96875 13.3125 -16.96875 C 11.695312 -16.96875 10.359375 -16.421875 9.296875 -15.328125 C 8.242188 -14.234375 7.71875 -12.765625 7.71875 -10.921875 C 7.71875 -9.078125 8.242188 -7.609375 9.296875 -6.515625 C 10.359375 -5.421875 11.695312 -4.875 13.3125 -4.875 Z M 13.3125 -4.875 "/></g></g></g><g fill="#ffffff" fill-opacity="1"><g transform="translate(490.890331, 309.758129)"><g><path d="M 16.203125 -22.171875 C 18.910156 -22.171875 21.097656 -21.359375 22.765625 -19.734375 C 24.429688 -18.109375 25.265625 -15.695312 25.265625 -12.5 L 25.265625 0 L 18.921875 0 L 18.921875 -11.53125 C 18.921875 -13.257812 18.539062 -14.550781 17.78125 -15.40625 C 17.03125 -16.257812 15.9375 -16.6875 14.5 -16.6875 C 12.90625 -16.6875 11.632812 -16.191406 10.6875 -15.203125 C 9.738281 -14.210938 9.265625 -12.742188 9.265625 -10.796875 L 9.265625 0 L 2.921875 0 L 2.921875 -21.84375 L 8.96875 -21.84375 L 8.96875 -19.296875 C 9.8125 -20.210938 10.851562 -20.921875 12.09375 -21.421875 C 13.34375 -21.921875 14.710938 -22.171875 16.203125 -22.171875 Z M 16.203125 -22.171875 "/></g></g></g><g fill="#ffffff" fill-opacity="1"><g transform="translate(517.327385, 309.758129)"><g/></g></g><g fill="#ffffff" fill-opacity="1"><g transform="translate(527.192659, 309.758129)"><g/></g></g><g fill="#ffffff" fill-opacity="1"><g transform="translate(537.057933, 309.758129)"><g/></g></g><g fill="#ffffff" fill-opacity="1"><g transform="translate(546.927363, 309.758129)"><g><path d="M 12.703125 0.484375 C 10.460938 0.484375 8.289062 0.179688 6.1875 -0.421875 C 4.09375 -1.035156 2.410156 -1.828125 1.140625 -2.796875 L 3.375 -7.75 C 4.59375 -6.863281 6.039062 -6.148438 7.71875 -5.609375 C 9.394531 -5.066406 11.070312 -4.796875 12.75 -4.796875 C 14.613281 -4.796875 15.992188 -5.070312 16.890625 -5.625 C 17.785156 -6.175781 18.234375 -6.914062 18.234375 -7.84375 C 18.234375 -8.519531 17.96875 -9.078125 17.4375 -9.515625 C 16.914062 -9.960938 16.238281 -10.320312 15.40625 -10.59375 C 14.582031 -10.863281 13.46875 -11.164062 12.0625 -11.5 C 9.894531 -12.007812 8.117188 -12.519531 6.734375 -13.03125 C 5.359375 -13.550781 4.175781 -14.378906 3.1875 -15.515625 C 2.195312 -16.648438 1.703125 -18.164062 1.703125 -20.0625 C 1.703125 -21.707031 2.148438 -23.203125 3.046875 -24.546875 C 3.941406 -25.890625 5.285156 -26.953125 7.078125 -27.734375 C 8.878906 -28.515625 11.082031 -28.90625 13.6875 -28.90625 C 15.5 -28.90625 17.269531 -28.6875 19 -28.25 C 20.738281 -27.820312 22.253906 -27.203125 23.546875 -26.390625 L 21.515625 -21.40625 C 18.890625 -22.894531 16.265625 -23.640625 13.640625 -23.640625 C 11.804688 -23.640625 10.445312 -23.335938 9.5625 -22.734375 C 8.6875 -22.140625 8.25 -21.359375 8.25 -20.390625 C 8.25 -19.410156 8.753906 -18.679688 9.765625 -18.203125 C 10.785156 -17.734375 12.335938 -17.269531 14.421875 -16.8125 C 16.585938 -16.300781 18.359375 -15.785156 19.734375 -15.265625 C 21.117188 -14.753906 22.300781 -13.941406 23.28125 -12.828125 C 24.269531 -11.722656 24.765625 -10.222656 24.765625 -8.328125 C 24.765625 -6.703125 24.3125 -5.21875 23.40625 -3.875 C 22.5 -2.539062 21.140625 -1.476562 19.328125 -0.6875 C 17.515625 0.09375 15.304688 0.484375 12.703125 0.484375 Z M 12.703125 0.484375 "/></g></g></g><g fill="#ffffff" fill-opacity="1"><g transform="translate(571.205876, 309.758129)"><g><path d="M 24.609375 -21.84375 L 14.734375 1.34375 C 13.734375 3.851562 12.492188 5.625 11.015625 6.65625 C 9.546875 7.6875 7.769531 8.203125 5.6875 8.203125 C 4.550781 8.203125 3.425781 8.023438 2.3125 7.671875 C 1.207031 7.316406 0.300781 6.832031 -0.40625 6.21875 L 1.90625 1.703125 C 2.394531 2.140625 2.957031 2.476562 3.59375 2.71875 C 4.226562 2.96875 4.859375 3.09375 5.484375 3.09375 C 6.347656 3.09375 7.050781 2.878906 7.59375 2.453125 C 8.132812 2.035156 8.625 1.335938 9.0625 0.359375 L 9.140625 0.15625 L -0.328125 -21.84375 L 6.21875 -21.84375 L 12.34375 -7.03125 L 18.515625 -21.84375 Z M 24.609375 -21.84375 "/></g></g></g><g fill="#ffffff" fill-opacity="1"><g transform="translate(593.860364, 309.758129)"><g><path d="M 10.28125 0.328125 C 8.457031 0.328125 6.679688 0.101562 4.953125 -0.34375 C 3.222656 -0.789062 1.84375 -1.351562 0.8125 -2.03125 L 2.921875 -6.578125 C 3.898438 -5.953125 5.078125 -5.441406 6.453125 -5.046875 C 7.835938 -4.660156 9.191406 -4.46875 10.515625 -4.46875 C 13.191406 -4.46875 14.53125 -5.128906 14.53125 -6.453125 C 14.53125 -7.078125 14.164062 -7.523438 13.4375 -7.796875 C 12.707031 -8.066406 11.585938 -8.296875 10.078125 -8.484375 C 8.285156 -8.753906 6.804688 -9.066406 5.640625 -9.421875 C 4.484375 -9.773438 3.476562 -10.394531 2.625 -11.28125 C 1.769531 -12.175781 1.34375 -13.453125 1.34375 -15.109375 C 1.34375 -16.484375 1.738281 -17.707031 2.53125 -18.78125 C 3.332031 -19.851562 4.5 -20.6875 6.03125 -21.28125 C 7.5625 -21.875 9.367188 -22.171875 11.453125 -22.171875 C 12.992188 -22.171875 14.53125 -22 16.0625 -21.65625 C 17.59375 -21.320312 18.859375 -20.859375 19.859375 -20.265625 L 17.75 -15.75 C 15.820312 -16.832031 13.722656 -17.375 11.453125 -17.375 C 10.097656 -17.375 9.082031 -17.1875 8.40625 -16.8125 C 7.726562 -16.4375 7.390625 -15.945312 7.390625 -15.34375 C 7.390625 -14.664062 7.753906 -14.191406 8.484375 -13.921875 C 9.210938 -13.648438 10.378906 -13.394531 11.984375 -13.15625 C 13.765625 -12.851562 15.222656 -12.535156 16.359375 -12.203125 C 17.503906 -11.867188 18.492188 -11.253906 19.328125 -10.359375 C 20.171875 -9.460938 20.59375 -8.21875 20.59375 -6.625 C 20.59375 -5.269531 20.1875 -4.0625 19.375 -3 C 18.5625 -1.945312 17.375 -1.128906 15.8125 -0.546875 C 14.257812 0.0351562 12.414062 0.328125 10.28125 0.328125 Z M 10.28125 0.328125 "/></g></g></g><g fill="#ffffff" fill-opacity="1"><g transform="translate(613.794605, 309.758129)"><g><path d="M 17.015625 -1.0625 C 16.390625 -0.59375 15.625 -0.242188 14.71875 -0.015625 C 13.8125 0.210938 12.859375 0.328125 11.859375 0.328125 C 9.253906 0.328125 7.242188 -0.332031 5.828125 -1.65625 C 4.410156 -2.988281 3.703125 -4.941406 3.703125 -7.515625 L 3.703125 -16.484375 L 0.328125 -16.484375 L 0.328125 -21.359375 L 3.703125 -21.359375 L 3.703125 -26.6875 L 10.03125 -26.6875 L 10.03125 -21.359375 L 15.46875 -21.359375 L 15.46875 -16.484375 L 10.03125 -16.484375 L 10.03125 -7.59375 C 10.03125 -6.675781 10.265625 -5.960938 10.734375 -5.453125 C 11.210938 -4.953125 11.882812 -4.703125 12.75 -4.703125 C 13.75 -4.703125 14.601562 -4.972656 15.3125 -5.515625 Z M 17.015625 -1.0625 "/></g></g></g><g fill="#ffffff" fill-opacity="1"><g transform="translate(629.831175, 309.758129)"><g><path d="M 24.328125 -10.84375 C 24.328125 -10.757812 24.285156 -10.191406 24.203125 -9.140625 L 7.671875 -9.140625 C 7.972656 -7.785156 8.675781 -6.710938 9.78125 -5.921875 C 10.894531 -5.140625 12.273438 -4.75 13.921875 -4.75 C 15.066406 -4.75 16.078125 -4.914062 16.953125 -5.25 C 17.835938 -5.59375 18.65625 -6.128906 19.40625 -6.859375 L 22.78125 -3.203125 C 20.726562 -0.847656 17.722656 0.328125 13.765625 0.328125 C 11.304688 0.328125 9.128906 -0.148438 7.234375 -1.109375 C 5.335938 -2.078125 3.875 -3.410156 2.84375 -5.109375 C 1.8125 -6.816406 1.296875 -8.753906 1.296875 -10.921875 C 1.296875 -13.054688 1.800781 -14.984375 2.8125 -16.703125 C 3.832031 -18.429688 5.226562 -19.773438 7 -20.734375 C 8.78125 -21.691406 10.765625 -22.171875 12.953125 -22.171875 C 15.085938 -22.171875 17.019531 -21.707031 18.75 -20.78125 C 20.488281 -19.863281 21.851562 -18.546875 22.84375 -16.828125 C 23.832031 -15.109375 24.328125 -13.113281 24.328125 -10.84375 Z M 13 -17.375 C 11.5625 -17.375 10.351562 -16.96875 9.375 -16.15625 C 8.40625 -15.34375 7.8125 -14.234375 7.59375 -12.828125 L 18.359375 -12.828125 C 18.140625 -14.210938 17.539062 -15.316406 16.5625 -16.140625 C 15.59375 -16.960938 14.40625 -17.375 13 -17.375 Z M 13 -17.375 "/></g></g></g><g fill="#ffffff" fill-opacity="1"><g transform="translate(653.825485, 309.758129)"><g><path d="M 30.90625 -22.171875 C 33.632812 -22.171875 35.804688 -21.363281 37.421875 -19.75 C 39.035156 -18.144531 39.84375 -15.726562 39.84375 -12.5 L 39.84375 0 L 33.5 0 L 33.5 -11.53125 C 33.5 -13.257812 33.140625 -14.550781 32.421875 -15.40625 C 31.703125 -16.257812 30.679688 -16.6875 29.359375 -16.6875 C 27.867188 -16.6875 26.691406 -16.207031 25.828125 -15.25 C 24.960938 -14.289062 24.53125 -12.863281 24.53125 -10.96875 L 24.53125 0 L 18.1875 0 L 18.1875 -11.53125 C 18.1875 -14.96875 16.804688 -16.6875 14.046875 -16.6875 C 12.585938 -16.6875 11.425781 -16.207031 10.5625 -15.25 C 9.695312 -14.289062 9.265625 -12.863281 9.265625 -10.96875 L 9.265625 0 L 2.921875 0 L 2.921875 -21.84375 L 8.96875 -21.84375 L 8.96875 -19.328125 C 9.78125 -20.242188 10.773438 -20.945312 11.953125 -21.4375 C 13.128906 -21.925781 14.425781 -22.171875 15.84375 -22.171875 C 17.382812 -22.171875 18.773438 -21.863281 20.015625 -21.25 C 21.265625 -20.644531 22.269531 -19.757812 23.03125 -18.59375 C 23.914062 -19.726562 25.039062 -20.609375 26.40625 -21.234375 C 27.78125 -21.859375 29.28125 -22.171875 30.90625 -22.171875 Z M 30.90625 -22.171875 "/></g></g></g></svg>